<svg id="Group_16" data-name="Group 16" xmlns="http://www.w3.org/2000/svg" width="59.161" height="55.174" viewBox="0 0 59.161 55.174">
  <path id="Path_58" data-name="Path 58" d="M55.835,64.052l.092.023H16.34l12.445-14a4,4,0,0,0,0-5.159l-1.936-2.175a2.995,2.995,0,0,0-4.572,0L.943,66.684a3.989,3.989,0,0,0,0,5.152L22.276,95.789a3,3,0,0,0,4.572,0l1.936-2.175a3.834,3.834,0,0,0,.944-2.566,3.713,3.713,0,0,0-.944-2.518L16.2,74.446H55.88a3.582,3.582,0,0,0,3.281-3.726V67.643A3.49,3.49,0,0,0,55.835,64.052Z" transform="translate(0 -41.674)" fill="#ecfff9"/>
</svg>
