<svg xmlns="http://www.w3.org/2000/svg" width="307.13" height="272.986" viewBox="0 0 307.13 272.986">
  <g id="location-on-map-svgrepo-com" transform="translate(5.065 -12.007)">
    <path id="Path_48" data-name="Path 48" d="M141.914,185.8a9.97,9.97,0,0,0,13.174,0c2.385-2.1,58.391-52.021,58.391-103.793a64.978,64.978,0,1,0-129.956,0C83.521,133.781,139.529,183.7,141.914,185.8ZM148.5,65.025a16.985,16.985,0,1,1-16.847,16.984A16.914,16.914,0,0,1,148.5,65.025Z" fill="none" stroke="#3b4e4b" stroke-width="10"/>
    <path id="Path_49" data-name="Path 49" d="M273.357,185.773,265.83,159.4a9.966,9.966,0,0,0-9.583-7.232H202.528q-2.913,4.33-6.158,8.7a248.81,248.81,0,0,1-32.061,35.41,23.923,23.923,0,0,1-31.618,0,248.824,248.824,0,0,1-32.06-35.408q-3.25-4.371-6.158-8.7H40.753A9.966,9.966,0,0,0,31.17,159.4L22.2,190.832l200.529,36.73Z" fill="none" stroke="#3b4e4b" stroke-width="10"/>
    <path id="Path_50" data-name="Path 50" d="M296.617,267.291l-19.23-67.4-95.412,80.1h105.06a9.965,9.965,0,0,0,9.582-12.7Z" fill="none" stroke="#3b4e4b" stroke-width="10"/>
    <path id="Path_51" data-name="Path 51" d="M48.793,209.888l-30.44-5.576L.383,267.291a9.966,9.966,0,0,0,9.583,12.7H48.793Z" fill="none" stroke="#3b4e4b" stroke-width="10"/>
    <path id="Path_52" data-name="Path 52" d="M62.746,212.445v67.547h97.527l48.584-40.785Z" fill="none" stroke="#3b4e4b" stroke-width="10"/>
  </g>
</svg>
