<svg xmlns="http://www.w3.org/2000/svg" width="74.808" height="82.26" viewBox="0 0 74.808 82.26">
  <g id="Logo" transform="translate(-211.914 -127.472)">
    <g id="Group_1" data-name="Group 1" transform="translate(-26 -56)">
      <path id="Path_2" data-name="Path 2" d="M252.563,45.983C285.9,27.158,285.6,27.453,285.6,27.453l-2.549-3.039-31.668-7.942-4.9,2.353L218.248,35.492l-3.334,5.687V79.024l31.57,19.609,3.334-2.353v-34.9l-3.334-3.628L222.562,44.316V40.3h4.118Z" transform="translate(23 167)" fill="#40826d"/>
      <path id="Path_3" data-name="Path 3" d="M253.936,61.572l4.412-4.608L281.094,44.12s-8.726-5.883-8.432-5.883,6.569-4.118,6.569-4.118l10.1,6.667.392,38.336L257.27,98.731l-3.726-2.451.392-34.218" transform="translate(23 167)" fill="#40826d"/>
    </g>
    <path id="Path_4" data-name="Path 4" d="M230.317,201.155v-39.6l13.753,7.291,3.314,4.474v33.8l-3.314,2.485Z" fill="#2d5b54"/>
    <path id="Path_5" data-name="Path 5" d="M243.407,154.76V130.9l6.3-2.817,30.157,7.125,2.728,3.324L249.7,157.079Z" fill="#2d5b54"/>
  </g>
</svg>
