<svg xmlns="http://www.w3.org/2000/svg" width="52.604" height="52.234" viewBox="0 0 52.604 52.234">
  <g id="Group_14" data-name="Group 14" transform="translate(-1060.156 -63.526)">
    <g id="satellite" transform="translate(981 -112.474)">
      <path id="Path_53" data-name="Path 53" d="M38.12,39.372a.885.885,0,0,0,1.252-1.252l-.311-.311,4.632-4.632a.885.885,0,0,0,0-1.252,8.329,8.329,0,0,0-8.488-2.016L33.8,28.5l2.227-2.227a.885.885,0,0,0,0-1.252l-5.7-5.7,2.249-2.249,2.8,2.8a.885.885,0,0,0,1.252,0L48.148,8.356a.885.885,0,0,0,0-1.252L41.3.259a.885.885,0,0,0-1.252,0L28.533,11.778a.885.885,0,0,0,0,1.252l2.8,2.8L29.08,18.075l-4.3-4.3a4.928,4.928,0,0,0-6.276-.568L16.5,11.205a.885.885,0,0,0-1.252,0L11.205,15.25a.885.885,0,0,0,0,1.252l2.005,2.005a4.921,4.921,0,0,0,.569,6.277l4.3,4.3-2.249,2.249-2.8-2.8a.885.885,0,0,0-1.252,0L.26,40.051a.885.885,0,0,0,0,1.252L7.1,48.148a.885.885,0,0,0,1.252,0L19.874,36.629a.885.885,0,0,0,0-1.252l-2.8-2.8,2.249-2.249,5.7,5.7a.885.885,0,0,0,1.252,0L28.5,33.8,29.908,35.2a8.329,8.329,0,0,0,2.016,8.489.885.885,0,0,0,1.252,0l4.632-4.632Zm1.717-25.209L34.245,8.57l2.6-2.6,5.592,5.592Zm.841-12.025L46.27,7.73l-2.582,2.582L38.1,4.719ZM32.993,9.822l5.592,5.592L36,18,30.411,12.4ZM8.571,34.244l5.592,5.592-2.6,2.6L5.971,36.844ZM7.73,46.27,2.138,40.677,4.719,38.1l5.592,5.592Zm7.685-7.685L9.823,32.992,12.4,30.411,18,36Zm8.86-22.81,7.512,7.512-8.5,8.5-7.512-7.512ZM21.3,14.11a3.15,3.15,0,0,1,1.66.472l-8.382,8.382a3.151,3.151,0,0,1,.45-3.888l4.045-4.045A3.14,3.14,0,0,1,21.3,14.11Zm-5.428-1.027L17.2,14.405l-1.4,1.4-1.4,1.4-1.322-1.322Zm9.773,21.066-1.111-1.111,8.5-8.5,1.111,1.111Zm4.106-1.6,2.793-2.793.942.942A8.285,8.285,0,0,0,30.7,33.489Zm2.837,9.225a6.553,6.553,0,0,1,9.181-9.181Z" transform="translate(79.156 176)" fill="#ecfff9"/>
    </g>
    <path id="Path_55" data-name="Path 55" d="M328.057,319.76a.7.7,0,0,0-.7.7,6.9,6.9,0,0,1-6.891,6.891.7.7,0,0,0,0,1.406,8.306,8.306,0,0,0,8.3-8.3A.7.7,0,0,0,328.057,319.76Z" transform="translate(776 -220)" fill="#ecfff9"/>
    <path id="Path_56" data-name="Path 56" d="M330.823,319.76a.938.938,0,0,0-.937.938,9.2,9.2,0,0,1-9.187,9.188.938.938,0,0,0,0,1.875A11.075,11.075,0,0,0,331.76,320.7.938.938,0,0,0,330.823,319.76Z" transform="translate(777 -220)" fill="#ecfff9"/>
    <path id="Path_57" data-name="Path 57" d="M333.588,319.76a1.172,1.172,0,0,0-1.172,1.172,11.5,11.5,0,0,1-11.484,11.484,1.172,1.172,0,0,0,0,2.344,13.844,13.844,0,0,0,13.828-13.828A1.172,1.172,0,0,0,333.588,319.76Z" transform="translate(778 -219)" fill="#ecfff9"/>
  </g>
</svg>
