<svg xmlns="http://www.w3.org/2000/svg" width="1771.1" height="737.6" viewBox="0 0 590 246"><g data-name="Group 9" stroke="#fff"><path data-name="Path 13" d="M3 243v-12l113-88 3-29h13l16-6-8-6 13-8s12-2 12-5 9-5 9-5l4 5 6-21h19l9 2 10-4 7-2 48-61h5v7h4V3h8l40 61 13 6v11l10-19 27 2 5 9v16l54 25 37 49 26 18 14 5 18 20v8l27 3 22 14v12H10l32-23 18-10 40-24 19-19 93-94 22-5 9-10h39l12 12 36 3 17 16h-33l-16-16" fill="#3b4e4b" stroke-width="6"/><path data-name="Path 14" d="M44 243l37-40h8l-26 40h14l38-40h8l-30 40" fill="none" stroke-width="3"/><path data-name="Path 15" d="M153 203l29-42-2 2-21 22h-24l13-24h32l2-56h48l11-18h-41" fill="none" stroke-width="4"/><path data-name="Path 16" d="M241 84l10-14 13 17h45l4 10 12 6h-54l-7-13" fill="none"/><path data-name="Path 17" d="M322 117l33 68h18l4 17h-18l-4-14" fill="none"/><path data-name="Path 18" d="M328 113h15l45 95v7h28l11 15v10h33l-23-43-5-12h-16v12h16l-36 4-19-41v-15h19v15h-28" fill="none"/><path data-name="Path 19" d="M350 92l111 116v4h-17l-10-26 27 54h38l-7-19-27-2 4 12h23s87-2 89 0-50-12-50-12h-32" fill="none" stroke-width="4"/><path data-name="Path 20" d="M405 145l-34-38h18z" fill="none"/><path data-name="Path 21" d="M371 107h45v45l4 8h8v-49l-8-4h-31l-6-16h-12z" fill="none"/><path data-name="Path 22" d="M388 92h20l8 14" fill="none"/><path data-name="Path 23" d="M185 177h105l-11-14h-82l-3-7h91l-6-7h-76l5-11h71l-9-10h-53l4-11h49l-8-13h-33l23-31 18 28h-6" fill="none"/><path data-name="Path 24" d="M203 217l-12 26 48-3-11-23z" fill="none"/><path data-name="Path 25" d="M118 217h182v23l-27-23-22 23-21-23" fill="none"/><path data-name="Path 26" d="M154 203h144v-5H154l10-8h133l-5-10-123 2 17-6" fill="none"/><path data-name="Path 27" d="M304 59L285 4l-8 9-2 42h-13l11-43-35 43h40l10 4z" fill="none"/><path data-name="Path 28" d="M305 59l25 3-37-56h-5v7" fill="none"/><path data-name="Path 29" d="M311 159l22 52 7 2-22-54h-6l25-1 14 25-19 2-10-25h5l12 22 6-1-12-20" fill="none"/><path data-name="Path 30" d="M336 200h22l15 39 1 3" fill="none"/><path data-name="Path 31" d="M377 203l22 36-6 3-22-39-7 1 23 37h-8l-15-37" fill="none"/><path data-name="Path 32" d="M459 186l9 20h68l-7-7h-62l-4-7h62l-17-8z" fill="none"/><path data-name="Path 33" d="M325 103l-18 42v10l-14 1-6-11-1-40h12v50h6l-2-51 4 1v48" fill="none"/><path data-name="Path 34" d="M345 99l41 45 10 1 3 13 24 25" fill="none"/><path data-name="Path 35" d="M67 186h31l-1-24h25l-3-17 18 1-7-29 47-11" fill="none"/></g></svg>