<svg xmlns="http://www.w3.org/2000/svg" width="1771.125" height="737.553" viewBox="0 0 590.375 245.851">
  <g id="Group_9" data-name="Group 9" transform="translate(-2382.35 -1451.657)">
    <path id="Path_13" data-name="Path 13" d="M2385.35,1694.508v-11.365L2498.4,1594.62l2.991-29.308h12.561l16.15-5.981-7.776-5.383,13.159-8.374s11.365-2.393,11.963-4.785,8.972-5.383,8.972-5.383l3.589,5.383,6.58-21.533h19.14l8.972,2.393,10.111-3.745,6.039-2.237,48.449-61.01h5.383v7.178h3.589v-7.178h8.374l40.075,61.01,12.561,5.981v10.766l9.57-19.14,27.514,2.393,5.383,8.972v16.15l53.15,24.523,37.766,49.047,25.72,18.542,13.757,4.785,18.542,19.738v8.374l26.916,2.393,22.131,14.953v11.365h-577.2l31.7-23.327,18.542-9.57,39.477-23.925,19.14-19.14,93.309-93.907,22.131-5.383,8.972-9.57h38.878l11.963,11.963,35.29,2.991,17.346,16.15h-32.9l-16.149-16.15" fill="#3b4e4b" stroke="#fff" stroke-width="6"/>
    <path id="Path_14" data-name="Path 14" d="M2426.622,1694.508l37.084-40.075h7.178l-25.72,40.075h14.355l37.682-40.075h8.374l-30.5,40.075" fill="none" stroke="#fff" stroke-width="3"/>
    <path id="Path_15" data-name="Path 15" d="M2534.883,1654.433l29.309-41.869-2.169,2.225-21.158,21.7h-23.327l12.561-23.925h31.924l2.169-56.224h47.851l11.365-17.346h-40.673" fill="none" stroke="#fff" stroke-width="4"/>
    <path id="Path_16" data-name="Path 16" d="M2623.407,1536l10.168-14.355,12.561,16.748h45.458l4.187,10.168,11.365,5.981h-53.832l-7.177-12.561" fill="none" stroke="#fff" stroke-width="1"/>
    <path id="Path_17" data-name="Path 17" d="M2704.753,1568.9l32.9,68.187h17.944l4.187,16.748h-17.944l-4.187-13.757" fill="none" stroke="#fff" stroke-width="1"/>
    <path id="Path_18" data-name="Path 18" d="M2710.136,1564.713h15.552l44.86,95.1v7.178h28.112l10.766,14.355v10.766h32.9L2819,1649.05l-4.187-12.561H2798.66v12.561h16.149l-36.486,3.589-19.14-41.271v-14.953h19.14v14.953h-28.112" fill="none" stroke="#fff" stroke-width="1"/>
    <path id="Path_19" data-name="Path 19" d="M2732.267,1543.779l110.654,116.038V1664h-16.15l-10.766-26.318,26.916,53.832H2881.2l-7.178-18.542-26.916-2.393,4.187,12.561h22.729s87.328-2.393,89.72,0-50.841-12.561-50.841-12.561h-31.7" fill="none" stroke="#fff" stroke-width="4"/>
    <path id="Path_20" data-name="Path 20" d="M2787.3,1596.713l-34.094-37.981h17.944Z" fill="none" stroke="#fff" stroke-width="1"/>
    <path id="Path_21" data-name="Path 21" d="M2753.2,1558.732h45.458v44.86l3.589,8.374h8.374v-49.645l-8.374-3.589h-31.1l-5.383-16.15H2753.2Z" fill="none" stroke="#fff" stroke-width="1"/>
    <path id="Path_22" data-name="Path 22" d="M2770.249,1543.779h20.037l8.374,13.757" fill="none" stroke="#fff" stroke-width="1"/>
    <path id="Path_23" data-name="Path 23" d="M2567.183,1628.414h104.673l-10.766-14.056h-81.944l-2.393-7.178h90.318l-5.981-6.579h-75.365l4.785-10.766h70.58l-8.972-10.168h-53.234l4.785-11.365h48.449l-7.776-12.561h-32.9l22.729-31.1,17.944,28.112h-5.383" fill="none" stroke="#fff" stroke-width="1"/>
    <path id="Path_24" data-name="Path 24" d="M2585.126,1668.788l-11.963,25.72,48.449-2.393-10.766-23.327Z" fill="none" stroke="#fff" stroke-width="1"/>
    <path id="Path_25" data-name="Path 25" d="M2500.192,1668.788h182.43v22.729l-26.916-22.729-22.729,22.729-20.336-22.729" fill="none" stroke="#fff" stroke-width="1"/>
    <path id="Path_26" data-name="Path 26" d="M2536.755,1654.433h143.7v-4.826h-143.7l9.988-8.377h132.42l-4.51-9.182-123.076,1.772,16.593-6.444" fill="none" stroke="#fff" stroke-width="1"/>
    <path id="Path_27" data-name="Path 27" d="M2686.089,1510.744l-18.365-54.772-8.216,8.538-1.933,42.046h-12.726l10.31-43.012-35.28,43.012h40.435l10.471,4.188Z" fill="none" stroke="#fff" stroke-width="1"/>
    <path id="Path_28" data-name="Path 28" d="M2686.895,1510.744l24.969,2.739-36.568-55.9h-5.316v6.927" fill="none" stroke="#fff" stroke-width="1"/>
    <path id="Path_29" data-name="Path 29" d="M2693.665,1610.3l21.909,52.195,7.088,1.933-22.231-54.128h-5.96l24.809-1.128,13.854,25.292-18.365,1.772-10.31-24.647h5.155l11.277,22.07,6.444-1.128-11.76-20.137" fill="none" stroke="#fff" stroke-width="1"/>
    <path id="Path_30" data-name="Path 30" d="M2718.635,1651.7c2.739-.161,21.264,0,21.264,0l15.626,39.146,1.128,2.739" fill="none" stroke="#fff" stroke-width="1"/>
    <path id="Path_31" data-name="Path 31" d="M2759.781,1654.433l21.68,36.578-6.122,2.255-21.587-38.833-7.41.815,22.875,37.213h-7.733l-15.143-37.213" fill="none" stroke="#fff" stroke-width="1"/>
    <path id="Path_32" data-name="Path 32" d="M2841.371,1637.163l9.437,20.4h67.774l-7.149-6.768H2848.9l-3.431-6.958h61.959l-16.681-7.912Z" fill="none" stroke="#fff" stroke-width="1"/>
    <path id="Path_33" data-name="Path 33" d="M2707.146,1554.545l-17.343,42.067v9.827l-14.337,1.611-5.8-11.438-.967-40.274h12.082v50.1h5.155l-1.772-50.745,4.511.644v48.167" fill="none" stroke="#fff" stroke-width="1"/>
    <path id="Path_34" data-name="Path 34" d="M2727.5,1550.657l40.6,45.149,10.31.805,3.061,13.532,23.681,24.809" fill="none" stroke="#fff" stroke-width="1"/>
    <path id="Path_35" data-name="Path 35" d="M2449.165,1637.314h31.581l-1.634-23.958h25.047l-3.267-17.152,18.241,1.361-6.806-28.859,47.1-11.435" fill="none" stroke="#fff" stroke-width="1"/>
  </g>
</svg>
